<?xml version="1.0" encoding="UTF-8" standalone="no"?>
<!DOCTYPE svg PUBLIC "-//W3C//DTD SVG 1.1//EN" "http://www.w3.org/Graphics/SVG/1.1/DTD/svg11.dtd">
<svg width="100%" height="100%" viewBox="0 0 99 55" version="1.1" xmlns="http://www.w3.org/2000/svg" xmlns:xlink="http://www.w3.org/1999/xlink" xml:space="preserve" xmlns:serif="http://www.serif.com/" style="fill-rule:evenodd;clip-rule:evenodd;stroke-linejoin:round;stroke-miterlimit:2;">
    <g transform="matrix(1,0,0,1,-1554,-1209)">
        <g id="_5" serif:id="5" transform="matrix(3.41236e-17,-0.557281,0.557281,3.41236e-17,1043.55,2139.67)">
            <g>
                <rect x="1593" y="917" width="55" height="20"/>
                <g transform="matrix(-5.78476e-17,-0.909091,-0.5,2.83644e-17,2116.5,2365.18)">
                    <path d="M1582,917L1593,937L1571,937L1582,917Z"/>
                </g>
                <g transform="matrix(5.78476e-17,0.909091,0.5,-2.83644e-17,1124.5,-511.182)">
                    <path d="M1582,917L1593,937L1571,937L1582,917Z"/>
                </g>
            </g>
            <g transform="matrix(6.12323e-17,1,-1,6.12323e-17,2586.5,-654.5)">
                <rect x="1593" y="917" width="55" height="20" style="fill:rgb(154,154,154);fill-opacity:0.16;"/>
                <g transform="matrix(-5.78476e-17,-0.909091,-0.5,2.83644e-17,2116.5,2365.18)">
                    <path d="M1582,917L1593,937L1571,937L1582,917Z" style="fill:rgb(154,154,154);fill-opacity:0.16;"/>
                </g>
                <g transform="matrix(5.78476e-17,0.909091,0.5,-2.83644e-17,1124.5,-511.182)">
                    <path d="M1582,917L1593,937L1571,937L1582,917Z" style="fill:rgb(154,154,154);fill-opacity:0.16;"/>
                </g>
            </g>
            <g transform="matrix(6.12323e-17,1,-1,6.12323e-17,2508.5,-654.5)">
                <rect x="1593" y="917" width="55" height="20"/>
                <g transform="matrix(-5.78476e-17,-0.909091,-0.5,2.83644e-17,2116.5,2365.18)">
                    <path d="M1582,917L1593,937L1571,937L1582,917Z"/>
                </g>
                <g transform="matrix(5.78476e-17,0.909091,0.5,-2.83644e-17,1124.5,-511.182)">
                    <path d="M1582,917L1593,937L1571,937L1582,917Z"/>
                </g>
            </g>
            <g transform="matrix(-1,-1.11022e-16,1.11022e-16,-1,3241,2010.18)">
                <rect x="1593" y="917" width="55" height="20"/>
                <g transform="matrix(-5.78476e-17,-0.909091,-0.5,2.83644e-17,2116.5,2365.18)">
                    <path d="M1582,917L1593,937L1571,937L1582,917Z"/>
                </g>
                <g transform="matrix(5.78476e-17,0.909091,0.5,-2.83644e-17,1124.5,-511.182)">
                    <path d="M1582,917L1593,937L1571,937L1582,917Z"/>
                </g>
            </g>
            <g transform="matrix(1.11022e-16,-1,1,1.11022e-16,654.5,2664.68)">
                <rect x="1593" y="917" width="55" height="20" style="fill:rgb(154,154,154);fill-opacity:0.16;"/>
                <g transform="matrix(-5.78476e-17,-0.909091,-0.5,2.83644e-17,2116.5,2365.18)">
                    <path d="M1582,917L1593,937L1571,937L1582,917Z" style="fill:rgb(154,154,154);fill-opacity:0.16;"/>
                </g>
                <g transform="matrix(5.78476e-17,0.909091,0.5,-2.83644e-17,1124.5,-511.182)">
                    <path d="M1582,917L1593,937L1571,937L1582,917Z" style="fill:rgb(154,154,154);fill-opacity:0.16;"/>
                </g>
            </g>
            <g transform="matrix(1.11022e-16,-1,1,1.11022e-16,732.5,2664.68)">
                <rect x="1593" y="917" width="55" height="20"/>
                <g transform="matrix(-5.78476e-17,-0.909091,-0.5,2.83644e-17,2116.5,2365.18)">
                    <path d="M1582,917L1593,937L1571,937L1582,917Z"/>
                </g>
                <g transform="matrix(5.78476e-17,0.909091,0.5,-2.83644e-17,1124.5,-511.182)">
                    <path d="M1582,917L1593,937L1571,937L1582,917Z"/>
                </g>
            </g>
            <g transform="matrix(-1,-1.22465e-16,1.22465e-16,-1,3241,1932)">
                <rect x="1593" y="917" width="55" height="20"/>
                <g transform="matrix(-5.78476e-17,-0.909091,-0.5,2.83644e-17,2116.5,2365.18)">
                    <path d="M1582,917L1593,937L1571,937L1582,917Z"/>
                </g>
                <g transform="matrix(5.78476e-17,0.909091,0.5,-2.83644e-17,1124.5,-511.182)">
                    <path d="M1582,917L1593,937L1571,937L1582,917Z"/>
                </g>
            </g>
        </g>
    </g>
</svg>
